<svg width="77" height="53" viewBox="0 0 77 53" fill="none" xmlns="http://www.w3.org/2000/svg">
<path fill-rule="evenodd" clip-rule="evenodd" d="M54.5417 0L59.0526 5.58885C60.2429 7.0649 62.2449 7.95 64.3913 7.95H77V53H0V7.95H19.0254C21.1718 7.95 23.1738 7.0649 24.3641 5.58885L28.875 0H54.5417ZM64.3913 10.6C61.1637 10.6 58.1735 9.275 56.3833 7.05695L52.8252 2.65H30.5915L27.0334 7.0596C25.2464 9.275 22.253 10.6 19.0254 10.6H3.20833V50.35H73.7917V10.6H64.3913ZM41.7629 13.25C52.3857 13.25 61.0129 20.3759 61.0129 29.15C61.0129 37.9242 52.3857 45.05 41.7629 45.05C31.1401 45.05 22.5129 37.9242 22.5129 29.15C22.5129 20.3759 31.1401 13.25 41.7629 13.25ZM41.7629 15.9C50.6179 15.9 57.8045 21.836 57.8045 29.15C57.8045 36.464 50.6179 42.4 41.7629 42.4C32.9079 42.4 25.7212 36.464 25.7212 29.15C25.7212 21.836 32.9079 15.9 41.7629 15.9ZM41.7629 21.2C47.0759 21.2 51.3879 24.7616 51.3879 29.15C51.3879 33.5384 47.0759 37.1 41.7629 37.1C36.4499 37.1 32.1379 33.5384 32.1379 29.15C32.1379 24.7616 36.4499 21.2 41.7629 21.2ZM41.7629 23.85C45.3049 23.85 48.1795 26.2244 48.1795 29.15C48.1795 32.0756 45.3049 34.45 41.7629 34.45C38.2209 34.45 35.3462 32.0756 35.3462 29.15C35.3462 26.2244 38.2209 23.85 41.7629 23.85ZM16.0962 18.55C16.0962 17.0872 14.6621 15.9 12.8879 15.9C11.1137 15.9 9.67954 17.0872 9.67954 18.55C9.67954 20.0128 11.1137 21.2 12.8879 21.2C14.6621 21.2 16.0962 20.0128 16.0962 18.55ZM6.47121 2.65H16.0994V5.3H6.47121V2.65Z" fill="#0EE3E3"/>
</svg>
