<svg width="66" height="67" viewBox="0 0 66 67" fill="none" xmlns="http://www.w3.org/2000/svg">
<path d="M22.0754 52.0035C22.0754 52.2652 21.7694 52.4746 21.3835 52.4746C20.9444 52.5139 20.6383 52.3045 20.6383 52.0035C20.6383 51.7418 20.9444 51.5324 21.3302 51.5324C21.7294 51.4932 22.0754 51.7025 22.0754 52.0035ZM17.9371 51.4146C17.844 51.6764 18.1101 51.9773 18.5093 52.0559C18.8552 52.1867 19.2544 52.0559 19.3343 51.7941C19.4141 51.5324 19.1613 51.2314 18.7621 51.1137C18.4161 51.0221 18.0302 51.1529 17.9371 51.4146ZM23.8185 51.1922C23.4327 51.2838 23.1665 51.5324 23.2065 51.8334C23.2464 52.0951 23.5923 52.2652 23.9915 52.1736C24.3774 52.082 24.6435 51.8334 24.6036 51.5717C24.5637 51.323 24.2044 51.1529 23.8185 51.1922ZM32.5742 1.04688C14.1181 1.04688 0 14.8264 0 32.9766C0 47.4889 9.2879 59.9074 22.5544 64.2781C24.2577 64.5791 24.8565 63.5453 24.8565 62.6947C24.8565 61.8834 24.8165 57.408 24.8165 54.66C24.8165 54.66 15.502 56.6229 13.546 50.7604C13.546 50.7604 12.029 46.9523 9.84677 45.9709C9.84677 45.9709 6.7996 43.9164 10.0597 43.9557C10.0597 43.9557 13.373 44.2174 15.196 47.3318C18.1101 52.383 22.9936 50.9305 24.8964 50.0668C25.2024 47.973 26.0673 46.5205 27.0254 45.6568C19.5871 44.8455 12.0823 43.7855 12.0823 31.1969C12.0823 27.5982 13.0935 25.7924 15.2226 23.4893C14.8766 22.6387 13.7456 19.1316 15.5685 14.6039C18.3496 13.7533 24.75 18.1371 24.75 18.1371C27.4113 17.4043 30.2722 17.0248 33.1065 17.0248C35.9407 17.0248 38.8016 17.4043 41.4629 18.1371C41.4629 18.1371 47.8633 13.7402 50.6444 14.6039C52.4673 19.1447 51.3363 22.6387 50.9903 23.4893C53.1194 25.8055 54.4234 27.6113 54.4234 31.1969C54.4234 43.8248 46.5859 44.8324 39.1476 45.6568C40.3718 46.6906 41.4097 48.6535 41.4097 51.7287C41.4097 56.1387 41.3698 61.5955 41.3698 62.6686C41.3698 63.5191 41.9819 64.5529 43.6718 64.252C56.9782 59.9074 66 47.4889 66 32.9766C66 14.8264 51.0302 1.04688 32.5742 1.04688ZM12.9339 46.1803C12.7609 46.3111 12.8008 46.6121 13.027 46.8607C13.2399 47.0701 13.546 47.1617 13.719 46.9916C13.8919 46.8607 13.852 46.5598 13.6258 46.3111C13.4129 46.1018 13.1069 46.0102 12.9339 46.1803ZM11.4968 45.1203C11.4036 45.2904 11.5367 45.4998 11.8028 45.6307C12.0157 45.7615 12.2819 45.7223 12.375 45.5391C12.4681 45.3689 12.3351 45.1596 12.069 45.0287C11.8028 44.9502 11.5899 44.9895 11.4968 45.1203ZM15.8081 49.7789C15.5952 49.949 15.675 50.3416 15.981 50.5902C16.2871 50.8912 16.673 50.9305 16.846 50.7211C17.019 50.551 16.9391 50.1584 16.673 49.9098C16.3802 49.6088 15.981 49.5695 15.8081 49.7789ZM14.2911 47.8553C14.0782 47.9861 14.0782 48.3264 14.2911 48.6273C14.504 48.9283 14.8633 49.0592 15.0363 48.9283C15.2492 48.7582 15.2492 48.418 15.0363 48.117C14.85 47.816 14.504 47.6852 14.2911 47.8553Z" fill="#0EE3E3"/>
</svg>
