<svg width="98" height="85" viewBox="0 0 98 85" fill="none" xmlns="http://www.w3.org/2000/svg">
<path d="M21.2 71H6.5C4.196 71 0 66.0461 0 63.5V6.5C0 4.5279 5.024 0 8 0H74C76.9808 0 80.5 4.5402 80.5 6.5V18.9H93.2C96.1808 18.9 98 21.0402 98 23V80.4C98 82.9461 95.4944 84.5 93.2 84.5H26C23.696 84.5 21.2 82.9461 21.2 80.4V71ZM65.6432 34.849C65.6432 34.849 55.3904 34.8572 43.4864 34.8613C41.4992 34.8613 39.8864 36.2389 39.8864 37.9363C39.8816 48.1002 39.872 56.8455 39.872 56.8455C39.872 58.5306 41.48 59.9 43.472 59.9C45.4592 59.9 47.072 58.5306 47.072 56.8455V45.3491L68.9072 64C70.3136 65.2013 72.5936 65.2013 74 64C75.4064 62.7987 75.4064 60.8512 74 59.6499L52.1648 40.999H65.6432C67.6064 40.999 69.2 39.6214 69.2 37.924C69.2 36.2266 67.6016 34.849 65.6432 34.849ZM71.6 18.9V8.65H9.2V61.95H21.2V23C21.2 21.0279 23.024 18.9 26 18.9H71.6Z" fill="#0EE3E3"/>
</svg>
