<svg width="66" height="67" viewBox="0 0 66 67" fill="none" xmlns="http://www.w3.org/2000/svg">
<g clip-path="url(#clip0_21_4)">
<path d="M33.0147 18.4512C23.6451 18.4512 16.0875 25.1643 16.0875 33.4869C16.0875 41.8096 23.6451 48.5226 33.0147 48.5226C42.3844 48.5226 49.942 41.8096 49.942 33.4869C49.942 25.1643 42.3844 18.4512 33.0147 18.4512ZM33.0147 43.2621C26.9598 43.2621 22.0098 38.8783 22.0098 33.4869C22.0098 28.0955 26.9451 23.7117 33.0147 23.7117C39.0844 23.7117 44.0196 28.0955 44.0196 33.4869C44.0196 38.8783 39.0696 43.2621 33.0147 43.2621V43.2621ZM54.5826 17.8361C54.5826 19.7859 52.8147 21.3432 50.6344 21.3432C48.4393 21.3432 46.6862 19.7729 46.6862 17.8361C46.6862 15.8994 48.454 14.3291 50.6344 14.3291C52.8147 14.3291 54.5826 15.8994 54.5826 17.8361ZM65.7937 21.3955C65.5433 16.6977 64.3353 12.5363 60.4607 9.10781C56.6009 5.6793 51.9161 4.60625 46.6272 4.3707C41.1763 4.0959 24.8384 4.0959 19.3875 4.3707C14.1134 4.59316 9.42857 5.66621 5.55402 9.09473C1.67947 12.5232 0.486162 16.6846 0.220984 21.3824C-0.0883911 26.2242 -0.0883911 40.7365 0.220984 45.5783C0.47143 50.2762 1.67947 54.4375 5.55402 57.866C9.42857 61.2945 14.0987 62.3676 19.3875 62.6031C24.8384 62.8779 41.1763 62.8779 46.6272 62.6031C51.9161 62.3807 56.6009 61.3076 60.4607 57.866C64.3205 54.4375 65.5286 50.2762 65.7937 45.5783C66.1031 40.7365 66.1031 26.2373 65.7937 21.3955V21.3955ZM58.7518 50.7734C57.6027 53.3383 55.3781 55.3143 52.4759 56.348C48.1299 57.8791 37.8174 57.5258 33.0147 57.5258C28.2121 57.5258 17.8848 57.866 13.5536 56.348C10.6661 55.3273 8.44152 53.3514 7.27768 50.7734C5.55402 46.9131 5.95179 37.7529 5.95179 33.4869C5.95179 29.2209 5.56875 20.0477 7.27768 16.2004C8.42679 13.6355 10.6513 11.6596 13.5536 10.6258C17.8996 9.09473 28.2121 9.44805 33.0147 9.44805C37.8174 9.44805 48.1446 9.10781 52.4759 10.6258C55.3634 11.6465 57.5879 13.6225 58.7518 16.2004C60.4754 20.0607 60.0777 29.2209 60.0777 33.4869C60.0777 37.7529 60.4754 46.9262 58.7518 50.7734Z" fill="#0EE3E3"/>
</g>
<defs>
<clipPath id="clip0_21_4">
<rect width="66" height="67" fill="white"/>
</clipPath>
</defs>
</svg>
