<svg width="78" height="62" viewBox="0 0 78 62" fill="none" xmlns="http://www.w3.org/2000/svg">
<path d="M61.8442 34.4444H71.5L70.6355 37.8889H60.9115L61.8442 34.4444ZM64.649 24.1111H73.788L74.75 20.6667H65.5818L64.649 24.1111ZM62.777 31H77.0347L78 27.5556H63.713L62.777 31ZM71.5 0L69.0853 6.88889H62.816L51.5255 48.2222H14.9987L0 10.3333H48.139L46.306 17.2222H9.776L19.3245 41.3333H46.7155L57.8695 0H71.5ZM24.375 51.6667C21.684 51.6667 19.5 53.9813 19.5 56.8333C19.5 59.6888 21.684 62 24.375 62C27.066 62 29.25 59.6888 29.25 56.8333C29.25 53.9813 27.066 51.6667 24.375 51.6667ZM40.625 51.6667C37.934 51.6667 35.75 53.9779 35.75 56.8333C35.75 59.6888 37.934 62 40.625 62C43.316 62 45.5 59.6888 45.5 56.8333C45.5 53.9813 43.316 51.6667 40.625 51.6667Z" fill="#0EE3E3"/>
</svg>
