<svg width="71" height="70" viewBox="0 0 71 70" fill="none" xmlns="http://www.w3.org/2000/svg">
<path fill-rule="evenodd" clip-rule="evenodd" d="M35.5 0C15.8951 0 0 15.6713 0 35C0 54.3288 15.8951 70 35.5 70C55.1049 70 71 54.3288 71 35C71 15.6713 55.1049 0 35.5 0ZM35.5 5.83333C51.8122 5.83333 65.0833 18.9175 65.0833 35C65.0833 51.0825 51.8122 64.1667 35.5 64.1667C19.1877 64.1667 5.91667 51.0825 5.91667 35C5.91667 18.9175 19.1877 5.83333 35.5 5.83333ZM35.5 14.5833C24.0631 14.5833 14.7917 23.7242 14.7917 35C14.7917 46.2758 24.0631 55.4167 35.5 55.4167C46.9369 55.4167 56.2083 46.2758 56.2083 35C56.2083 23.7242 46.9369 14.5833 35.5 14.5833ZM44.9962 44.03C44.6265 44.6338 43.8307 44.8204 43.2212 44.4558C38.3607 41.5246 32.2399 40.8625 25.0305 42.4871C24.3353 42.6417 23.643 42.2129 23.4862 41.5304C23.3265 40.845 23.7584 40.1625 24.4565 40.005C32.3435 38.2287 39.1121 38.9929 44.5702 42.28C45.1767 42.6475 45.369 43.4321 44.9962 44.03V44.03ZM47.5315 38.4708C47.0641 39.2204 46.0701 39.4567 45.3098 38.9958C39.7452 35.6242 31.2577 34.6471 24.6755 36.6158C23.8205 36.8725 22.9182 36.3971 22.6608 35.5571C22.4035 34.7142 22.8857 33.8275 23.7377 33.5708C31.2577 31.3221 40.609 32.41 46.999 36.2833C47.7593 36.7442 47.999 37.7242 47.5315 38.4708V38.4708ZM47.7505 32.6842C41.0735 28.7758 30.0626 28.4142 23.6903 30.3217C22.6697 30.6279 21.587 30.0592 21.2763 29.05C20.9657 28.0408 21.5426 26.9733 22.5662 26.6671C29.8821 24.4796 42.0409 24.9025 49.7266 29.4C50.6467 29.9367 50.9484 31.1092 50.4041 32.0163C49.8568 32.9233 48.6675 33.2208 47.7505 32.6842V32.6842Z" fill="#0EE3E3"/>
</svg>
