<svg width="78" height="67" viewBox="0 0 78 67" fill="none" xmlns="http://www.w3.org/2000/svg">
<path fill-rule="evenodd" clip-rule="evenodd" d="M78 67H0V0H78V67ZM13 63.8095V51.0476H3.25V63.8095H13ZM61.75 63.8095V3.19048H16.25V63.8095H61.75ZM74.75 63.8095V51.0476H65V63.8095H74.75ZM55.25 33.5L26 49.4524V17.5476L55.25 33.5ZM65 35.0952V47.8571H74.75V35.0952H65ZM13 47.8571V35.0952H3.25V47.8571H13ZM29.25 44.0286L48.5582 33.5L29.25 22.9714V44.0286V44.0286ZM65 19.1429V31.9048H74.75V19.1429H65ZM13 31.9048V19.1429H3.25V31.9048H13ZM65 3.19048V15.9524H74.75V3.19048H65ZM13 15.9524V3.19048H3.25V15.9524H13Z" fill="#0EE3E3"/>
</svg>
