<svg width="107" height="85" viewBox="0 0 107 85" fill="none" xmlns="http://www.w3.org/2000/svg">
<path d="M17.8333 37.7778C7.98042 37.7778 0 29.3203 0 18.8889C0 8.4575 7.98487 0 17.8333 0C27.6818 0 35.6667 8.4575 35.6667 18.8889C35.6667 29.3203 27.6818 37.7778 17.8333 37.7778ZM62.4167 47.2222C65.5464 47.2222 68.538 46.6225 71.3333 45.5694V75.5556C71.3333 80.7689 67.3387 85 62.4167 85H17.8333C12.9113 85 8.91667 80.7689 8.91667 75.5556V45.5694C11.712 46.6225 14.7036 47.2222 17.8333 47.2222C27.1245 47.2222 35.3278 42.1789 40.125 34.5336C44.9222 42.1789 53.1255 47.2222 62.4167 47.2222ZM80.25 51.9444V70.8333L107 85V37.7778L80.25 51.9444ZM62.4167 0C52.5682 0 44.5833 8.4575 44.5833 18.8889C44.5833 29.3203 52.5682 37.7778 62.4167 37.7778C72.2651 37.7778 80.25 29.3203 80.25 18.8889C80.25 8.4575 72.2651 0 62.4167 0Z" fill="#0EE3E3"/>
</svg>
