<svg width="71" height="69" viewBox="0 0 71 69" fill="none" xmlns="http://www.w3.org/2000/svg">
<path d="M35.5 0C15.8951 0 0 15.4474 0 34.5C0 53.5526 15.8951 69 35.5 69C55.1049 69 71 53.5526 71 34.5C71 15.4474 55.1049 0 35.5 0ZM52.4512 58.0261C52.1377 56.5139 51.7531 55.0189 51.2738 53.5555C53.9275 51.2239 53.818 47.2391 51.0608 45.2669C52.7826 38.6026 52.8654 31.326 51.0549 24.3139C51.6052 23.9947 52.0844 23.5836 52.4601 23.092C56.797 24.2765 60.8352 26.1567 64.4473 28.5861C64.8615 30.498 65.0833 32.4731 65.0833 34.5C65.0833 44.2232 60.0778 52.8195 52.4512 58.0261V58.0261ZM5.91667 34.5C5.91667 32.0419 6.27167 29.6642 6.87221 27.3844C8.94008 27.2579 10.9932 27.2694 13.2237 27.4764L13.3421 28.1261C10.6175 30.3542 8.165 32.9015 5.98471 35.8139L5.91667 34.5V34.5ZM15.333 31.0788C17.8417 32.9274 21.4952 32.3322 23.2081 29.67C31.7814 32.7175 39.0027 38.5164 43.739 45.9598C41.4729 48.1879 41.5025 51.704 43.7952 53.7079C41.7805 57.247 39.2157 60.4498 36.2218 63.2155C21.7201 63.5519 9.82167 53.8373 6.73021 41.0866C9.01404 37.3031 11.9221 33.9164 15.333 31.0788ZM23.8708 25.6134C29.7608 22.8131 36.1627 21.4964 42.5793 21.6545C43.4816 23.4111 45.3305 24.748 47.5079 25.0067H47.5256C49.1734 31.2081 49.2503 37.8637 47.6114 44.2692L46.9517 44.3354C41.8515 36.2135 33.8374 29.5837 23.9862 26.22L23.8708 25.6134V25.6134ZM41.8042 62.5773C43.881 60.2284 45.6826 57.7041 47.1677 55.0246L47.9664 55.0016C48.4753 56.6174 48.8776 58.2763 49.1734 59.9725C46.8748 61.1398 44.4046 62.0253 41.8042 62.5773V62.5773ZM62.8172 23.483C59.8323 21.873 56.6757 20.6022 53.3831 19.7139C53.0636 16.8532 50.3035 14.4699 47.1144 14.4929C45.4814 11.5632 43.4698 8.81475 41.1268 6.28763C50.9514 8.13338 59.0572 14.7114 62.8172 23.483ZM43.6709 15.6975C42.9106 16.33 42.3604 17.1781 42.1207 18.1642C34.8551 18.078 27.9858 19.6765 21.8621 22.6636C19.3475 20.8294 15.7383 21.4533 14.0343 24.0523C11.8807 23.8338 9.95479 23.7877 8.04667 23.8452C12.4132 13.2566 23.0632 5.75 35.5 5.75H35.503C38.7483 8.60775 41.5202 11.96 43.6709 15.6975V15.6975Z" fill="#0EE3E3"/>
</svg>
